<svg viewBox="0 0 256 256" xmlns="http://www.w3.org/2000/svg"><path d="m208 219.999h-.001l-48.00683-.00634a12.01365 12.01365 0 0 1 -11.99805-12v-48.001a4.00426 4.00426 0 0 0 -4-4h-32a4.00427 4.00427 0 0 0 -4 4v48.001a12.01386 12.01386 0 0 1 -11.999 12l-47.99312.00634a11.99893 11.99893 0 0 1 -12.002-12v-92.46043a12.02234 12.02234 0 0 1 3.92773-8.8789l79.99317-72.73438a11.95376 11.95376 0 0 1 16.14551-.001l80.00586 72.73584a12.02554 12.02554 0 0 1 3.92773 8.87893v92.46a11.99893 11.99893 0 0 1 -12 12zm-96.00586-72.0073h32a12.01343 12.01343 0 0 1 12 12v48.001a4.00438 4.00438 0 0 0 3.999 4l48.00686.0063a4.0002 4.0002 0 0 0 4-4v-92.46a4.0106 4.0106 0 0 0 -1.30957-2.96045l-80.00488-72.7348a3.98585 3.98585 0 0 0 -5.38282.001l-79.99316 72.73435a4.00407 4.00407 0 0 0 -1.30957 2.95947v92.46043a4.00018 4.00018 0 0 0 4.001 4l47.99316-.00634a4.00458 4.00458 0 0 0 4-4v-48.001a12.01343 12.01343 0 0 1 11.99998-11.99996z"/></svg>