<svg fill="none" height="24" viewBox="0 0 24 24" width="24" xmlns="http://www.w3.org/2000/svg"><path clip-rule="evenodd" d="m5.58579 4.58579c-.58579.58578-.58579 1.52859-.58579 3.41421v9c0 1.8856 0 2.8284.58579 3.4142.58578.5858 1.52859.5858 3.41421.5858h6c1.8856 0 2.8284 0 3.4142-.5858s.5858-1.5286.5858-3.4142v-9c0-1.88562 0-2.82843-.5858-3.41421-.5858-.58579-1.5286-.58579-3.4142-.58579h-6c-1.88562 0-2.82843 0-3.41421.58579zm3.41421 3.41421c-.55228 0-1 .44772-1 1s.44772 1 1 1h6c.5523 0 1-.44772 1-1s-.4477-1-1-1zm0 4c-.55228 0-1 .4477-1 1s.44772 1 1 1h6c.5523 0 1-.4477 1-1s-.4477-1-1-1zm0 4c-.55228 0-1 .4477-1 1s.44772 1 1 1h4c.5523 0 1-.4477 1-1s-.4477-1-1-1z" fill="#222" fill-rule="evenodd"/></svg>